<svg xmlns="http://www.w3.org/2000/svg" viewBox="0 0 400 320">
  <defs>
    <linearGradient id="bg" x1="0%" y1="0%" x2="100%" y2="100%">
      <stop offset="0%" stop-color="#4a6fa5"/>
      <stop offset="55%" stop-color="#283655"/>
      <stop offset="100%" stop-color="#0b0c10"/>
    </linearGradient>
    <filter id="shadow" x="-50%" y="-50%" width="200%" height="200%">
      <feDropShadow dx="0" dy="6" stdDeviation="10" flood-color="#283655" flood-opacity="0.35"/>
    </filter>
  </defs>

  <rect width="400" height="320" fill="#ffffff"/>

  <circle cx="200" cy="106" r="78" fill="url(#bg)" filter="url(#shadow)"/>
  <g transform="translate(170, 66) scale(0.15625)">
    <path fill="#ffffff" d="M320 64a64 64 0 1 0 -128 0 64 64 0 1 0 128 0zM200.7 264l22.9 31.5c6.5 8.9 16.3 14.7 27.2 16.1s21.9-1.7 30.4-8.7l88-72c17.1-14 19.6-39.2 5.6-56.3s-39.2-19.6-56.3-5.6l-55.2 45.2-26.2-36c-15.6-21.5-40.6-34.2-67.2-34.2-30.9 0-59.2 17.1-73.6 44.4L47.8 280.9c-20.2 38.5-9.4 85.9 25.6 111.8L126.6 432 40 432c-22.1 0-40 17.9-40 40s17.9 40 40 40l208 0c17.3 0 32.6-11.1 38-27.5s-.3-34.4-14.2-44.7l-116.1-85.8 45-90z"/>
  </g>

  <text x="200" y="245" font-family="Arial, Helvetica, sans-serif" font-weight="bold" font-size="46" fill="#16181d" text-anchor="middle">Faith Fast</text>
  <text x="200" y="278" font-family="Arial, Helvetica, sans-serif" font-size="15" fill="#8a8a8a" text-anchor="middle" letter-spacing="1.5">DEEPEN YOUR SPIRITUAL JOURNEY</text>
</svg>
