<svg xmlns="http://www.w3.org/2000/svg" version="1.1" xmlns:xlink="http://www.w3.org/1999/xlink" viewBox="0 0 200 200"><rect width="200" height="200" fill="url('#gradient')"></rect><defs><linearGradient id="gradient" gradientTransform="rotate(80 0.5 0.5)"><stop offset="0%" stop-color="#ffffff"></stop><stop offset="100%" stop-color="#1f1f1f"></stop></linearGradient></defs><g><g fill="#191718" transform="matrix(1.6264838655743186,0,0,1.6264838655743186,3.2543178633729966,108.81546447420973)" stroke="#989d98" stroke-width="0"><path d="M12.96-14.22L12.96 0L9.55 0L9.55-5.94L4.50-5.94L4.50 0L1.07 0L1.07-14.22L4.50-14.22L4.50-8.57L9.55-8.57L9.55-14.22L12.96-14.22ZM18.45-10.57L18.45 0L15.15 0L15.15-10.57L18.45-10.57ZM14.95-13.29L14.95-13.29Q14.95-13.99 15.46-14.44Q15.97-14.89 16.78-14.89Q17.59-14.89 18.10-14.44Q18.60-13.99 18.60-13.29Q18.60-12.59 18.10-12.14Q17.59-11.69 16.78-11.69Q15.97-11.69 15.46-12.14Q14.95-12.59 14.95-13.29ZM23.95-15L23.95 0L20.64 0L20.64-15L23.95-15ZM29.44-15L29.44 0L26.14 0L26.14-15L29.44-15ZM37.00-2.97L37.00-2.97Q37.00-3.39 36.56-3.64Q36.12-3.90 34.89-4.17Q33.66-4.44 32.86-4.89Q32.06-5.33 31.64-5.97Q31.22-6.60 31.22-7.42L31.22-7.42Q31.22-8.88 32.42-9.82Q33.62-10.76 35.57-10.76L35.57-10.76Q37.66-10.76 38.93-9.81Q40.20-8.87 40.20-7.32L40.20-7.32L36.89-7.32Q36.89-8.59 35.56-8.59L35.56-8.59Q35.04-8.59 34.69-8.31Q34.34-8.02 34.34-7.59L34.34-7.59Q34.34-7.15 34.77-6.88Q35.20-6.60 36.14-6.43Q37.08-6.25 37.79-6.01L37.79-6.01Q40.18-5.19 40.18-3.07L40.18-3.07Q40.18-1.62 38.89-0.71Q37.61 0.20 35.57 0.20L35.57 0.20Q34.21 0.20 33.14-0.29Q32.08-0.78 31.48-1.62Q30.89-2.46 30.89-3.39L30.89-3.39L33.96-3.39Q33.98-2.66 34.45-2.32Q34.92-1.98 35.65-1.98L35.65-1.98Q36.33-1.98 36.67-2.26Q37.00-2.53 37.00-2.97ZM41.31-4.82L41.30-5.38Q41.30-6.96 41.91-8.20Q42.53-9.43 43.68-10.10Q44.83-10.76 46.39-10.76L46.39-10.76Q48.76-10.76 50.13-9.29Q51.49-7.82 51.49-5.29L51.49-5.29L51.49-5.18Q51.49-2.71 50.12-1.25Q48.75 0.20 46.41 0.20L46.41 0.20Q44.15 0.20 42.78-1.16Q41.42-2.51 41.31-4.82L41.31-4.82ZM44.60-5.77L44.59-5.18Q44.59-3.71 45.05-3.03Q45.51-2.34 46.41-2.34L46.41-2.34Q48.16-2.34 48.20-5.05L48.20-5.05L48.20-5.38Q48.20-8.22 46.39-8.22L46.39-8.22Q44.74-8.22 44.60-5.77L44.60-5.77ZM52.88-10.57L55.97-10.57L56.07-9.33Q57.17-10.76 59.09-10.76L59.09-10.76Q60.74-10.76 61.56-9.78Q62.37-8.79 62.40-6.81L62.40-6.81L62.40 0L59.10 0L59.10-6.67Q59.10-7.47 58.78-7.85Q58.46-8.22 57.61-8.22L57.61-8.22Q56.64-8.22 56.17-7.46L56.17-7.46L56.17 0L52.88 0L52.88-10.57ZM63.84-5.24L63.84-5.36Q63.84-6.96 64.37-8.19Q64.89-9.42 65.88-10.09Q66.87-10.76 68.17-10.76L68.17-10.76Q69.82-10.76 70.75-9.65L70.75-9.65L70.87-10.57L73.86-10.57L73.86-0.40Q73.86 1.00 73.21 2.03Q72.56 3.06 71.33 3.61Q70.10 4.16 68.48 4.16L68.48 4.16Q67.31 4.16 66.23 3.72Q65.14 3.28 64.56 2.58L64.56 2.58L65.94 0.64Q66.86 1.73 68.36 1.73L68.36 1.73Q70.55 1.73 70.55-0.52L70.55-0.52L70.55-0.85Q69.60 0.20 68.15 0.20L68.15 0.20Q66.22 0.20 65.03-1.28Q63.84-2.76 63.84-5.24L63.84-5.24ZM67.14-5.16L67.14-5.16Q67.14-3.86 67.63-3.10Q68.12-2.34 68.99-2.34L68.99-2.34Q70.06-2.34 70.55-3.06L70.55-3.06L70.55-7.50Q70.07-8.22 69.01-8.22L69.01-8.22Q68.13-8.22 67.64-7.44Q67.14-6.65 67.14-5.16ZM89.81-8.30L89.81-5.66L84.29-5.66L84.29 0L80.86 0L80.86-14.22L90.37-14.22L90.37-11.57L84.29-11.57L84.29-8.30L89.81-8.30ZM100.56 0L97.27 0Q97.09-0.32 96.95-0.95L96.95-0.95Q96.04 0.20 94.41 0.20L94.41 0.20Q92.92 0.20 91.88-0.71Q90.83-1.61 90.83-2.98L90.83-2.98Q90.83-4.70 92.10-5.58Q93.37-6.46 95.79-6.46L95.79-6.46L96.81-6.46L96.81-7.01Q96.81-8.47 95.55-8.47L95.55-8.47Q94.38-8.47 94.38-7.31L94.38-7.31L91.08-7.31Q91.08-8.85 92.39-9.80Q93.69-10.76 95.71-10.76Q97.73-10.76 98.91-9.78Q100.08-8.79 100.11-7.07L100.11-7.07L100.11-2.39Q100.13-0.94 100.56-0.17L100.56-0.17L100.56 0ZM95.21-2.15L95.21-2.15Q95.82-2.15 96.23-2.41Q96.63-2.68 96.81-3.01L96.81-3.01L96.81-4.70L95.85-4.70Q94.13-4.70 94.13-3.15L94.13-3.15Q94.13-2.71 94.43-2.43Q94.74-2.15 95.21-2.15ZM107.46-2.97L107.46-2.97Q107.46-3.39 107.02-3.64Q106.58-3.90 105.35-4.17Q104.12-4.44 103.32-4.89Q102.52-5.33 102.10-5.97Q101.68-6.60 101.68-7.42L101.68-7.42Q101.68-8.88 102.88-9.82Q104.08-10.76 106.03-10.76L106.03-10.76Q108.12-10.76 109.38-9.81Q110.65-8.87 110.65-7.32L110.65-7.32L107.35-7.32Q107.35-8.59 106.02-8.59L106.02-8.59Q105.50-8.59 105.15-8.31Q104.79-8.02 104.79-7.59L104.79-7.59Q104.79-7.15 105.22-6.88Q105.65-6.60 106.60-6.43Q107.54-6.25 108.25-6.01L108.25-6.01Q110.63-5.19 110.63-3.07L110.63-3.07Q110.63-1.62 109.35-0.71Q108.07 0.20 106.03 0.20L106.03 0.20Q104.67 0.20 103.60-0.29Q102.54-0.78 101.94-1.62Q101.35-2.46 101.35-3.39L101.35-3.39L104.42-3.39Q104.44-2.66 104.91-2.32Q105.38-1.98 106.11-1.98L106.11-1.98Q106.79-1.98 107.12-2.26Q107.46-2.53 107.46-2.97ZM112.71-13.19L116.01-13.19L116.01-10.57L117.74-10.57L117.74-8.28L116.01-8.28L116.01-3.45Q116.01-2.85 116.22-2.62Q116.44-2.38 117.07-2.38L117.07-2.38Q117.56-2.38 117.89-2.44L117.89-2.44L117.89-0.09Q117.00 0.20 116.04 0.20L116.04 0.20Q114.34 0.20 113.53-0.61Q112.71-1.41 112.71-3.04L112.71-3.04L112.71-8.28L111.37-8.28L111.37-10.57L112.71-10.57L112.71-13.19Z"></path></g></g></svg>